<?xml version="1.0" encoding="UTF-8"?>
<svg id="Layer_2" data-name="Layer 2" xmlns="http://www.w3.org/2000/svg" viewBox="0 0 365.94 354.9">
  <g id="symbols">
    <path id="flower_02" data-name="flower 02" d="M285,221.9c9.4,4.88,17.85,11.94,24.5,21.09,22.88,31.49,15.9,75.56-15.59,98.44-31.49,22.88-75.56,15.9-98.44-15.59-6.66-9.16-10.77-19.39-12.5-29.85-1.73,10.46-5.84,20.69-12.5,29.85-22.88,31.49-66.95,38.47-98.44,15.59-31.49-22.88-38.47-66.95-15.59-98.44,6.65-9.15,15.09-16.22,24.5-21.09-10.47,1.57-21.47.81-32.22-2.68C11.7,207.19-8.56,167.44,3.47,130.42c12.03-37.02,51.79-57.28,88.8-45.25,10.75,3.49,20.07,9.32,27.61,16.74-4.72-9.46-7.39-20.14-7.39-31.44C112.5,31.55,144.05,0,182.97,0s70.47,31.55,70.47,70.47c0,11.3-2.67,21.98-7.39,31.44,7.54-7.42,16.87-13.25,27.61-16.74,37.02-12.03,76.78,8.23,88.8,45.25,12.02,37.02-8.23,76.78-45.25,88.8-10.76,3.49-21.75,4.25-32.22,2.68Z"/>
  </g>
</svg>